<svg width="333" height="148" viewBox="0 0 333 148" fill="none" xmlns="http://www.w3.org/2000/svg">
<path d="M146.417 62.2064V94.1606C146.417 96.7987 146.978 98.6784 148.099 99.7996C149.22 100.855 151.166 101.382 153.936 101.382H160.564V109H152.452C147.439 109 143.68 107.846 141.174 105.537C138.667 103.229 137.414 99.4368 137.414 94.1606V62.2064H130.39V54.7867H137.414V41.1344H146.417V54.7867H160.564V62.2064H146.417ZM168.108 81.6955C168.108 76.1554 169.229 71.3079 171.472 67.1529C173.714 62.9319 176.781 59.6672 180.672 57.3588C184.629 55.0505 189.015 53.8963 193.83 53.8963C198.578 53.8963 202.7 54.9186 206.196 56.9631C209.691 59.0077 212.296 61.5798 214.011 64.6796V54.7867H223.113V109H214.011V98.9092C212.23 102.075 209.559 104.713 205.998 106.824C202.502 108.868 198.413 109.89 193.731 109.89C188.916 109.89 184.563 108.703 180.672 106.329C176.781 103.955 173.714 100.624 171.472 96.337C169.229 92.0501 168.108 87.1696 168.108 81.6955ZM214.011 81.7944C214.011 77.7053 213.187 74.1439 211.538 71.11C209.889 68.0762 207.647 65.7678 204.811 64.185C202.041 62.5361 198.974 61.7117 195.61 61.7117C192.247 61.7117 189.18 62.5032 186.41 64.086C183.64 65.6689 181.43 67.9773 179.782 71.0111C178.133 74.0449 177.308 77.6064 177.308 81.6955C177.308 85.8505 178.133 89.4779 179.782 92.5777C181.43 95.6116 183.64 97.9529 186.41 99.6017C189.18 101.185 192.247 101.976 195.61 101.976C198.974 101.976 202.041 101.185 204.811 99.6017C207.647 97.9529 209.889 95.6116 211.538 92.5777C213.187 89.4779 214.011 85.8835 214.011 81.7944ZM303.521 53.7974C307.742 53.7974 311.501 54.6877 314.799 56.4685C318.096 58.1833 320.701 60.7884 322.614 64.2839C324.527 67.7794 325.483 72.0334 325.483 77.0458V109H316.579V78.3319C316.579 72.9237 315.227 68.8017 312.523 65.9657C309.885 63.0638 306.291 61.6128 301.74 61.6128C297.057 61.6128 293.331 63.1297 290.561 66.1636C287.791 69.1314 286.406 73.4514 286.406 79.1233V109H277.502V78.3319C277.502 72.9237 276.15 68.8017 273.446 65.9657C270.808 63.0638 267.214 61.6128 262.663 61.6128C257.98 61.6128 254.254 63.1297 251.484 66.1636C248.714 69.1314 247.329 73.4514 247.329 79.1233V109H238.326V54.7867H247.329V62.6021C249.11 59.7661 251.484 57.5897 254.452 56.0728C257.486 54.5558 260.816 53.7974 264.444 53.7974C268.994 53.7974 273.017 54.8196 276.513 56.8642C280.008 58.9087 282.614 61.9096 284.328 65.8668C285.845 62.0415 288.352 59.0736 291.847 56.9631C295.343 54.8526 299.234 53.7974 303.521 53.7974Z" fill="#7187FF"/>
<rect y="24.6667" width="98.6667" height="98.6667" rx="29.1515" fill="#1D1446"/>
<mask id="mask0_1_36" style="mask-type:alpha" maskUnits="userSpaceOnUse" x="130" y="41" width="196" height="69">
<path d="M146.417 62.2064V94.1606C146.417 96.7987 146.978 98.6784 148.099 99.7996C149.22 100.855 151.166 101.382 153.936 101.382H160.564V109H152.452C147.439 109 143.68 107.846 141.174 105.537C138.667 103.229 137.414 99.4368 137.414 94.1606V62.2064H130.39V54.7867H137.414V41.1344H146.417V54.7867H160.564V62.2064H146.417ZM168.108 81.6955C168.108 76.1554 169.229 71.3079 171.472 67.1529C173.714 62.9319 176.781 59.6672 180.672 57.3588C184.629 55.0505 189.015 53.8963 193.83 53.8963C198.578 53.8963 202.7 54.9186 206.196 56.9631C209.691 59.0077 212.296 61.5798 214.011 64.6796V54.7867H223.113V109H214.011V98.9092C212.23 102.075 209.559 104.713 205.998 106.824C202.502 108.868 198.413 109.89 193.731 109.89C188.916 109.89 184.563 108.703 180.672 106.329C176.781 103.955 173.714 100.624 171.472 96.337C169.229 92.0501 168.108 87.1696 168.108 81.6955ZM214.011 81.7944C214.011 77.7053 213.187 74.1439 211.538 71.11C209.889 68.0762 207.647 65.7678 204.811 64.185C202.041 62.5361 198.974 61.7117 195.61 61.7117C192.247 61.7117 189.18 62.5032 186.41 64.086C183.64 65.6689 181.43 67.9773 179.782 71.0111C178.133 74.0449 177.308 77.6064 177.308 81.6955C177.308 85.8505 178.133 89.4779 179.782 92.5777C181.43 95.6116 183.64 97.9529 186.41 99.6017C189.18 101.185 192.247 101.976 195.61 101.976C198.974 101.976 202.041 101.185 204.811 99.6017C207.647 97.9529 209.889 95.6116 211.538 92.5777C213.187 89.4779 214.011 85.8835 214.011 81.7944ZM303.521 53.7974C307.742 53.7974 311.501 54.6877 314.799 56.4685C318.096 58.1833 320.701 60.7884 322.614 64.2839C324.527 67.7794 325.483 72.0334 325.483 77.0458V109H316.579V78.3319C316.579 72.9237 315.227 68.8017 312.523 65.9657C309.885 63.0638 306.291 61.6128 301.74 61.6128C297.057 61.6128 293.331 63.1297 290.561 66.1636C287.791 69.1314 286.406 73.4514 286.406 79.1233V109H277.502V78.3319C277.502 72.9237 276.15 68.8017 273.446 65.9657C270.808 63.0638 267.214 61.6128 262.663 61.6128C257.98 61.6128 254.254 63.1297 251.484 66.1636C248.714 69.1314 247.329 73.4514 247.329 79.1233V109H238.326V54.7867H247.329V62.6021C249.11 59.7661 251.484 57.5897 254.452 56.0728C257.486 54.5558 260.816 53.7974 264.444 53.7974C268.994 53.7974 273.017 54.8196 276.513 56.8642C280.008 58.9087 282.614 61.9096 284.328 65.8668C285.845 62.0415 288.352 59.0736 291.847 56.9631C295.343 54.8526 299.234 53.7974 303.521 53.7974Z" fill="#7187FF"/>
</mask>
<g mask="url(#mask0_1_36)">
<rect x="96.4242" y="25.7879" width="98.6667" height="98.6667" rx="29.1515" fill="#1D1446"/>
</g>
<rect x="15.697" y="40.3636" width="68.3939" height="68.3939" rx="15.697" fill="#7187FF"/>
<mask id="mask1_1_36" style="mask-type:alpha" maskUnits="userSpaceOnUse" x="15" y="40" width="70" height="69">
<rect x="15.697" y="40.3636" width="68.3939" height="68.3939" rx="15.697" fill="#7187FF"/>
</mask>
<g mask="url(#mask1_1_36)">
<path d="M48.2334 100.628L29.228 80.3592L35.9448 75.0329L48.2192 88.9473L88.7229 46.1517L95.4452 51.3103L48.2334 100.628Z" fill="white" stroke="white" stroke-width="0.580255"/>
</g>
</svg>
